<?xml version="1.0" standalone="no"?>
<!DOCTYPE svg PUBLIC "-//W3C//DTD SVG 20010904//EN"
 "http://www.w3.org/TR/2001/REC-SVG-20010904/DTD/svg10.dtd">
<svg version="1.0" xmlns="http://www.w3.org/2000/svg"
 width="300.000000pt" height="300.000000pt" viewBox="0 0 300.000000 300.000000"
 preserveAspectRatio="xMidYMid meet">
<metadata>
Created by potrace 1.14, written by Peter Selinger 2001-2017
</metadata>
<g transform="translate(0.000000,300.000000) scale(0.100000,-0.100000)"
fill="#000000" stroke="none">
<path d="M1215 2853 c-50 -27 -60 -53 -20 -53 20 0 25 -5 25 -25 0 -18 5 -25
20 -25 11 0 23 -7 27 -15 8 -23 -2 -28 -26 -15 -30 16 -48 1 -21 -17 18 -13
26 -13 46 -3 19 11 26 11 39 0 13 -11 15 -9 15 14 0 22 4 26 28 26 36 0 46
-10 25 -25 -15 -11 -15 -14 3 -38 16 -22 24 -25 53 -20 23 4 32 2 27 -5 -4 -6
4 -16 16 -23 13 -7 27 -17 31 -23 6 -7 7 -4 3 7 -6 18 9 24 19 7 3 -5 18 -10
31 -10 14 0 33 -8 42 -18 10 -10 13 -12 9 -6 -5 7 -7 25 -5 41 2 23 7 28 26
25 29 -3 25 19 -6 33 -12 5 -22 15 -22 22 0 7 -7 13 -15 13 -17 0 -19 -14 -5
-40 8 -15 6 -21 -9 -30 -11 -5 -30 -10 -43 -10 -21 1 -21 2 -6 13 25 20 17 85
-13 108 -13 10 -18 19 -11 19 7 0 23 -11 36 -25 13 -14 34 -25 48 -25 13 0 39
-11 56 -24 20 -14 53 -26 86 -30 55 -6 87 -17 188 -66 70 -34 61 -16 -11 24
-28 15 -76 53 -108 84 -40 39 -85 70 -147 100 -48 24 -90 41 -93 39 -2 -3 18
-15 44 -28 26 -12 51 -27 54 -32 4 -5 17 -14 29 -20 13 -7 25 -18 28 -24 6
-20 -22 -15 -35 6 -6 10 -25 21 -41 24 -16 3 -36 12 -43 19 -8 7 -39 14 -69
15 -41 2 -59 8 -70 23 -17 22 -36 15 -41 -14 -7 -35 -29 -30 -29 6 0 32 -2 34
-35 35 -39 1 -42 -3 -21 -26 18 -20 24 -49 11 -50 -5 -1 -10 5 -10 12 0 6 -12
20 -27 30 -16 11 -28 23 -28 28 0 13 -21 10 -55 -8z m63 -46 c2 -10 -3 -17
-12 -17 -18 0 -29 16 -21 31 9 14 29 6 33 -14z m28 -44 c-10 -10 -19 5 -10 18
6 11 8 11 12 0 2 -7 1 -15 -2 -18z m167 -35 c-8 -15 -24 -8 -32 15 -13 33 -2
41 19 15 10 -13 16 -26 13 -30z"/>
<path d="M1150 2750 c0 -5 -5 -10 -12 -10 -6 0 -20 -8 -30 -17 -14 -13 -21
-14 -30 -5 -16 16 -28 15 -28 -2 0 -20 35 -26 66 -10 15 8 29 12 32 9 8 -8 32
16 32 31 0 8 -7 14 -15 14 -8 0 -15 -4 -15 -10z"/>
<path d="M1155 2596 c-53 -18 -98 -30 -107 -28 -4 1 -34 -12 -67 -29 -64 -34
-64 -34 -46 -124 5 -24 4 -27 -5 -15 -10 12 -11 12 -4 -5 4 -11 8 -30 9 -42 3
-41 37 -104 53 -98 19 7 42 -12 42 -36 0 -10 8 -22 18 -28 14 -8 15 -12 5 -22
-17 -18 -16 -32 1 -26 9 4 17 -2 21 -14 4 -10 13 -19 21 -19 8 0 14 -4 14 -9
0 -13 78 -64 88 -57 5 3 18 -4 30 -14 22 -21 37 -27 28 -11 -9 15 5 41 21 41
10 0 14 -7 11 -18 -6 -23 33 -39 110 -47 57 -5 72 9 19 18 -49 8 -106 34 -113
52 -13 33 81 82 120 62 10 -5 30 -10 44 -12 14 -1 36 -15 48 -30 14 -18 28
-26 38 -22 9 4 32 -4 53 -19 25 -17 40 -21 47 -14 5 5 18 10 27 10 10 0 21 9
24 20 4 11 15 20 26 20 18 0 20 5 14 44 -6 37 -4 47 14 65 21 21 21 22 4 46
-10 13 -33 27 -50 31 -18 3 -33 10 -33 14 0 5 -15 18 -34 29 -19 12 -41 37
-50 56 -9 19 -23 38 -30 42 -41 24 -121 103 -133 131 -11 26 -18 32 -33 27
-12 -4 -22 0 -28 12 -8 14 -15 15 -34 7 -26 -12 -90 -2 -96 15 -5 14 -38 13
-87 -3z"/>
<path d="M1737 2586 c-3 -8 8 -19 29 -29 28 -14 34 -14 34 -2 0 13 -36 45 -51
45 -4 0 -9 -6 -12 -14z"/>
<path d="M1900 2560 c-8 -5 -25 -7 -37 -4 -21 6 -21 4 -10 -28 7 -18 17 -36
22 -41 6 -4 1 -14 -12 -25 -16 -12 -21 -23 -17 -39 6 -23 34 -33 34 -12 0 7
10 9 25 5 14 -4 25 -2 25 4 0 5 -12 10 -27 10 -20 0 -24 3 -16 11 16 16 47 7
58 -19 5 -12 15 -22 21 -22 6 0 17 -7 24 -15 7 -8 16 -12 21 -9 5 3 9 0 9 -5
0 -6 7 -11 15 -11 9 0 15 9 15 21 0 18 4 20 25 15 30 -8 33 -1 5 14 -16 8 -26
7 -42 -5 -26 -18 -38 -19 -38 -4 0 14 -48 52 -74 59 -10 3 -29 18 -40 34 -20
27 -20 29 -3 40 36 22 52 35 42 36 -5 0 -17 -5 -25 -10z"/>
<path d="M345 2528 c-42 -33 -85 -107 -85 -145 0 -43 19 -79 65 -123 20 -19
51 -62 70 -95 37 -66 247 -279 325 -330 110 -72 148 -109 176 -170 86 -188 96
-341 28 -446 -33 -52 -44 -89 -25 -89 13 0 81 97 81 116 0 9 6 14 13 11 6 -2
11 -15 9 -28 -4 -42 -5 -74 -1 -89 3 -11 -4 -15 -26 -15 -29 0 -30 -1 -30 -47
0 -33 -6 -53 -21 -70 -18 -20 -46 -76 -50 -100 -1 -5 -2 -11 -3 -15 -1 -5 -11
3 -21 16 -17 19 -23 21 -35 11 -8 -7 -15 -16 -15 -21 0 -25 -46 -109 -59 -109
-23 -1 -49 -64 -61 -150 -6 -41 -13 -93 -17 -115 -3 -22 -5 -57 -5 -78 0 -21
-5 -37 -11 -37 -7 0 -20 -7 -30 -14 -17 -13 -17 -18 -2 -81 21 -92 20 -105 -9
-105 -34 0 -46 -20 -57 -95 -5 -37 -13 -75 -19 -84 -5 -10 -7 -21 -3 -24 11
-11 1463 -8 1463 3 0 5 12 10 26 10 14 0 23 -4 19 -10 -4 -6 11 -10 37 -10
l43 1 -30 16 c-16 9 -40 24 -53 33 -13 11 -31 16 -43 13 -17 -5 -20 -2 -17 13
2 13 16 22 46 28 49 11 56 34 12 43 -16 3 -30 11 -30 18 0 8 -5 15 -12 17 -19
7 -1 37 32 56 36 20 37 28 8 43 -18 10 -24 8 -39 -12 -10 -13 -19 -20 -19 -15
0 5 -7 3 -15 -4 -10 -9 -15 -9 -15 -1 0 6 4 11 9 11 5 0 11 9 14 20 3 13 14
20 30 20 15 0 40 13 58 30 l32 29 -39 -3 c-21 -1 -43 -5 -49 -7 -5 -2 -12 1
-13 6 -2 6 15 16 38 22 52 15 59 20 25 20 -35 0 -39 7 -21 36 10 14 14 32 9
42 -9 26 -42 57 -52 50 -5 -2 -11 1 -14 9 -4 9 8 19 35 29 42 17 48 40 12 45
-16 2 -20 9 -16 31 3 20 -2 33 -16 42 -21 15 -31 56 -19 75 11 19 11 68 -1 90
-10 20 -9 22 20 28 17 3 41 6 54 6 28 0 32 15 7 24 -32 12 -66 34 -75 50 -11
19 -2 36 18 36 8 0 14 7 14 15 0 8 7 15 16 15 8 0 12 5 9 10 -3 6 -28 10 -56
10 -27 0 -50 5 -50 10 -5 37 10 78 35 99 9 7 16 20 16 27 0 8 5 14 11 14 19 0
48 -44 43 -65 -3 -15 4 -24 31 -36 l35 -16 -5 30 c-4 20 0 36 12 49 14 16 15
23 5 38 -18 30 -15 49 14 73 14 12 26 30 28 39 2 19 84 98 102 98 19 0 38 -54
40 -115 1 -33 5 -77 9 -98 5 -25 3 -47 -5 -62 -11 -20 -8 -27 31 -67 55 -55
88 -116 71 -127 -12 -7 -7 -39 8 -51 20 -16 42 -86 37 -118 -7 -41 15 -102 37
-102 10 0 19 -16 26 -42 6 -24 22 -66 35 -94 28 -56 44 -121 28 -111 -5 3 -15
23 -22 44 -7 22 -21 50 -31 63 l-18 24 5 -50 c3 -27 9 -53 14 -58 5 -6 9 -31
9 -56 0 -34 5 -52 20 -65 19 -18 20 -17 20 3 0 49 29 11 46 -60 7 -34 -9 -37
-24 -5 -16 34 -7 -68 12 -132 8 -28 12 -51 8 -51 -20 0 -73 58 -78 85 -3 18
-21 46 -44 68 -22 21 -40 39 -40 41 0 2 15 3 33 2 28 -1 32 2 35 27 2 15 -1
27 -7 27 -6 0 -11 -9 -11 -20 0 -25 -28 -16 -40 14 -8 20 -9 20 -9 -3 -1 -18
-4 -21 -14 -13 -8 7 -18 7 -27 2 -17 -11 -71 -2 -85 14 -11 12 -61 46 -69 46
-15 0 64 -69 91 -80 47 -18 60 -37 40 -57 -15 -15 -14 -19 4 -55 13 -25 26
-38 39 -38 12 0 20 -7 20 -16 0 -11 -5 -14 -16 -10 -11 4 -14 1 -12 -12 5 -26
42 -22 46 6 4 26 29 29 48 5 20 -27 17 -45 -5 -38 -28 9 -36 -13 -9 -24 13 -5
30 -16 37 -25 15 -18 61 -22 61 -6 0 7 6 7 19 0 11 -5 32 -10 46 -10 22 0 26
3 20 18 -4 9 -13 55 -19 102 -7 47 -20 110 -29 140 -9 30 -31 111 -47 180 -17
69 -39 145 -49 170 -10 25 -24 77 -31 115 -10 59 -67 202 -101 255 -24 38 -42
89 -54 159 -8 42 -18 90 -23 106 -5 17 -7 52 -6 80 2 32 -2 58 -12 72 -13 20
-13 23 1 23 8 0 15 4 15 8 0 5 18 38 40 75 56 92 68 159 46 240 -9 34 -28 79
-42 99 -13 21 -24 49 -24 64 0 16 -5 24 -13 22 -21 -8 -19 -34 7 -73 26 -38
33 -65 17 -65 -5 0 -14 7 -21 15 -10 12 -10 15 1 15 24 1 -12 17 -54 24 -31 6
-37 10 -32 26 5 16 -2 19 -60 25 -36 4 -65 11 -65 16 0 5 -9 9 -19 9 -24 0
-36 16 -20 26 16 10 -31 35 -54 28 -10 -3 -20 1 -23 10 -6 16 -34 23 -34 8 0
-4 -19 -29 -43 -55 -31 -34 -50 -47 -70 -47 -28 0 -66 17 -79 35 -4 5 -10 6
-14 2 -13 -13 28 -47 56 -47 18 0 33 -8 44 -25 20 -31 20 -35 -1 -35 -10 0
-25 -5 -33 -10 -13 -8 -12 -12 7 -25 17 -12 21 -22 17 -43 -7 -33 16 -57 45
-49 15 3 20 -2 24 -22 6 -32 2 -38 -18 -21 -22 18 -48 -6 -40 -37 4 -16 1 -23
-10 -23 -19 0 -19 -14 -1 -48 8 -15 17 -35 20 -44 3 -10 11 -18 17 -18 8 0 10
14 7 44 -4 32 -2 46 8 50 8 3 14 13 14 21 0 9 5 13 10 10 6 -4 8 -10 5 -14 -4
-7 -14 -105 -15 -153 0 -29 -28 -20 -35 11 -3 17 -16 33 -31 40 -13 6 -27 18
-30 26 -12 31 -24 13 -18 -26 7 -40 6 -41 -14 -30 -11 6 -24 16 -27 21 -16 26
-26 7 -19 -36 l6 -45 -48 30 c-26 17 -53 31 -58 31 -6 0 -31 21 -57 46 -44 43
-48 45 -57 27 -7 -12 -8 -33 -2 -56 4 -20 4 -37 -1 -37 -13 0 -29 36 -29 64 0
33 -20 76 -35 76 -7 0 -15 9 -18 20 -3 11 -16 24 -29 29 -14 5 -48 35 -75 67
-34 38 -56 55 -66 51 -10 -4 -13 -13 -10 -26 7 -29 2 -27 -62 20 -45 34 -55
47 -55 72 0 26 2 28 17 16 9 -8 34 -14 55 -15 37 0 39 1 33 25 -11 41 -23 50
-71 46 -38 -2 -49 2 -81 31 -20 19 -44 34 -53 34 -22 0 -65 48 -78 86 -8 25
-7 35 5 47 14 13 11 17 -22 33 -35 16 -36 18 -19 31 17 12 17 15 2 29 -9 9
-40 28 -69 43 -58 29 -70 52 -44 81 17 19 16 20 -9 30 -15 5 -32 9 -39 7 -6
-1 -14 14 -17 33 -5 35 -5 35 -52 32 -41 -3 -51 1 -78 26 -22 21 -37 28 -55
24 -16 -3 -33 2 -45 13 -12 11 -26 14 -39 10 -15 -4 -21 -2 -21 8 0 8 -9 26
-21 41 -26 32 -66 34 -104 4z m378 -183 c9 -19 21 -35 26 -35 6 0 15 -8 20
-18 9 -16 4 -18 -45 -18 -51 1 -55 2 -50 22 3 11 -1 29 -8 40 -12 16 -11 20 8
30 31 17 31 17 49 -21z m-7 -110 c18 -14 18 -14 -8 -15 -18 0 -28 5 -28 15 0
19 11 19 36 0z m45 -95 c5 0 9 -6 9 -14 0 -8 5 -16 12 -18 6 -2 9 -10 7 -16
-3 -8 -18 2 -39 24 -22 24 -28 35 -17 31 10 -4 23 -7 28 -7z m202 -127 c-7 -2
-19 -2 -25 0 -7 3 -2 5 12 5 14 0 19 -2 13 -5z m392 -360 c18 -44 14 -53 -9
-18 -9 14 -23 25 -31 25 -18 0 -19 12 -3 28 15 15 26 7 43 -35z m79 -59 c9
-24 7 -28 -9 -14 -17 14 -20 30 -6 30 5 0 12 -7 15 -16z m166 -141 c0 -11 -5
-11 -20 -3 -20 11 -26 31 -13 44 9 8 33 -22 33 -41z m317 -973 c-26 -16 -47
-36 -47 -44 0 -7 -7 -16 -15 -20 -25 -9 -17 19 13 45 27 24 68 47 86 48 6 1
-11 -12 -37 -29z m93 -10 c0 -5 -4 -10 -10 -10 -5 0 -10 5 -10 10 0 6 5 10 10
10 6 0 10 -4 10 -10z m-35 -70 c-3 -5 -14 -10 -23 -10 -15 0 -15 2 -2 10 20
13 33 13 25 0z m-25 -40 c13 -8 13 -10 -2 -10 -9 0 -20 5 -23 10 -8 13 5 13
25 0z m-93 -92 c-3 -8 -6 -5 -6 6 -1 11 2 17 5 13 3 -3 4 -12 1 -19z m597 -74
c8 -21 -1 -34 -25 -34 -22 0 -23 4 -9 31 13 23 26 24 34 3z m-491 -75 c-11
-12 -26 -18 -32 -15 -24 15 -6 31 39 35 10 1 8 -5 -7 -20z m-1163 -37 c-8 -3
-27 -18 -42 -33 -17 -17 -28 -22 -28 -14 0 16 71 68 79 58 3 -3 -1 -8 -9 -11z"/>
<path d="M1971 2532 c-14 -26 -14 -52 -1 -52 17 0 35 49 23 61 -8 8 -14 5 -22
-9z"/>
<path d="M1738 2513 c7 -3 16 -2 19 1 4 3 -2 6 -13 5 -11 0 -14 -3 -6 -6z"/>
<path d="M2004 2483 c-16 -37 8 -82 33 -61 12 10 12 13 -2 21 -12 7 -13 12 -5
22 12 14 6 35 -10 35 -4 0 -11 -8 -16 -17z"/>
<path d="M1802 2479 c2 -7 10 -15 17 -17 8 -3 12 1 9 9 -2 7 -10 15 -17 17 -8
3 -12 -1 -9 -9z"/>
<path d="M2118 2439 c24 -27 29 -59 10 -59 -18 0 15 -31 37 -34 17 -2 42 -40
86 -126 24 -47 24 -13 0 42 -28 64 -82 142 -121 174 -31 25 -33 25 -12 3z"/>
<path d="M1832 2353 c8 -10 18 -26 21 -36 6 -15 10 -16 27 -7 25 13 20 24 -22
44 -40 20 -45 20 -26 -1z"/>
<path d="M1930 2364 c0 -4 12 -19 28 -32 27 -23 27 -23 3 -18 -16 3 -21 2 -14
-5 13 -13 58 -2 74 18 16 19 -2 32 -37 25 -13 -2 -31 1 -39 8 -8 7 -15 9 -15
4z"/>
<path d="M2070 2341 c0 -12 -4 -21 -10 -21 -5 0 -10 -7 -10 -15 0 -17 43 -38
48 -24 6 15 22 10 22 -6 0 -8 -4 -15 -10 -15 -5 0 -10 -7 -10 -15 0 -12 4 -13
19 -5 11 5 26 7 35 4 31 -12 37 7 15 46 -18 32 -25 37 -40 30 -25 -14 -27 -13
-31 12 -4 28 -28 36 -28 9z"/>
<path d="M907 2299 c7 -7 15 -10 18 -7 3 3 -2 9 -12 12 -14 6 -15 5 -6 -5z"/>
<path d="M1770 2300 c0 -5 5 -10 10 -10 6 0 10 5 10 10 0 6 -4 10 -10 10 -5 0
-10 -4 -10 -10z"/>
<path d="M851 2274 c0 -11 3 -14 6 -6 3 7 2 16 -1 19 -3 4 -6 -2 -5 -13z"/>
<path d="M1834 2255 c-18 -14 -17 -15 20 -13 22 2 41 9 44 16 5 17 -40 15 -64
-3z"/>
<path d="M1950 2230 c0 -5 11 -10 25 -10 14 0 25 5 25 10 0 6 -11 10 -25 10
-14 0 -25 -4 -25 -10z"/>
<path d="M2090 2205 c0 -20 46 -30 65 -15 21 18 9 30 -31 30 -23 0 -34 -5 -34
-15z"/>
<path d="M2220 2211 c0 -6 5 -13 10 -16 6 -3 10 1 10 9 0 9 -4 16 -10 16 -5 0
-10 -4 -10 -9z"/>
<path d="M1833 2203 c-7 -2 -13 -10 -13 -16 0 -6 -7 -18 -15 -27 -14 -15 -14
-18 -1 -23 10 -4 22 6 35 29 27 46 27 51 -6 37z"/>
<path d="M1935 2150 c-18 -7 -18 -9 -3 -15 23 -9 50 -3 56 13 4 14 -22 15 -53
2z"/>
<path d="M1875 2139 c-10 -15 3 -25 16 -12 7 7 7 13 1 17 -6 3 -14 1 -17 -5z"/>
<path d="M1855 2071 c3 -19 1 -39 -5 -46 -7 -9 -6 -16 4 -25 23 -19 30 28 11
70 l-16 35 6 -34z"/>
<path d="M1800 2076 c0 -9 5 -16 10 -16 6 0 10 4 10 9 0 6 -4 13 -10 16 -5 3
-10 -1 -10 -9z"/>
<path d="M1558 2010 c-7 -11 -20 -20 -30 -20 -9 0 -20 -4 -23 -10 -15 -23 34
-7 60 20 16 17 23 30 17 30 -7 0 -17 -9 -24 -20z"/>
<path d="M1630 2000 c0 -5 5 -10 11 -10 5 0 7 5 4 10 -3 6 -8 10 -11 10 -2 0
-4 -4 -4 -10z"/>
<path d="M1676 1983 c-10 -26 23 -48 42 -29 8 8 12 22 9 30 -8 21 -43 20 -51
-1z"/>
<path d="M1835 1969 c-4 -6 -4 -13 -1 -16 8 -8 36 5 36 17 0 13 -27 13 -35 -1z"/>
<path d="M2250 1962 c0 -5 7 -15 15 -22 8 -7 15 -9 15 -6 0 4 -7 14 -15 22 -8
9 -15 11 -15 6z"/>
<path d="M1252 1924 c4 -21 22 -23 26 -1 2 10 -3 17 -13 17 -10 0 -15 -6 -13
-16z"/>
<path d="M1610 1930 c0 -5 5 -10 10 -10 6 0 10 5 10 10 0 6 -4 10 -10 10 -5 0
-10 -4 -10 -10z"/>
<path d="M1310 1840 c0 -30 21 -42 35 -20 3 6 16 10 28 10 l22 1 -24 19 c-36
30 -61 26 -61 -10z"/>
<path d="M1710 1854 c0 -9 5 -14 12 -12 18 6 21 28 4 28 -9 0 -16 -7 -16 -16z"/>
<path d="M1420 1851 c0 -5 8 -17 17 -27 20 -20 32 -1 13 21 -14 17 -30 20 -30
6z"/>
<path d="M1620 1814 c0 -4 8 -13 18 -21 16 -13 15 -14 -8 -8 -52 15 -103 18
-96 6 4 -6 15 -11 24 -11 10 0 28 -7 40 -16 19 -13 21 -18 10 -31 -10 -12 -8
-18 12 -33 22 -16 25 -17 36 -2 7 9 18 13 29 9 12 -5 16 -3 12 5 -3 7 -8 21
-12 31 -4 10 -3 17 4 17 23 0 11 41 -15 50 -29 11 -54 13 -54 4z"/>
<path d="M1480 1740 c20 -13 33 -13 25 0 -3 6 -14 10 -23 10 -15 0 -15 -2 -2
-10z"/>
<path d="M1831 1673 c0 -4 4 -17 9 -28 8 -19 9 -19 9 2 1 12 -3 25 -9 28 -5 3
-10 3 -9 -2z"/>
<path d="M1756 1568 c10 -18 19 -28 21 -21 5 15 -15 53 -28 53 -5 0 -2 -15 7
-32z"/>
<path d="M2210 1119 c0 -11 5 -17 10 -14 6 3 10 13 10 21 0 8 -4 14 -10 14 -5
0 -10 -9 -10 -21z"/>
<path d="M2221 1070 c-1 -18 16 -46 23 -40 2 3 -2 16 -9 30 -8 15 -14 19 -14
10z"/>
<path d="M2101 1040 c-16 -9 -6 -30 15 -30 15 0 20 25 6 34 -4 2 -14 1 -21 -4z"/>
<path d="M2290 963 c0 -6 18 -17 40 -26 39 -15 53 -10 27 11 -18 15 -67 26
-67 15z"/>
<path d="M2310 768 c0 -9 17 -35 39 -58 21 -23 47 -59 56 -81 18 -38 35 -52
35 -26 0 18 -41 77 -107 156 -17 20 -22 22 -23 9z"/>
<path d="M2315 633 c10 -16 25 -37 35 -48 63 -73 89 -142 50 -132 -24 6 -37
-10 -21 -26 6 -6 11 -18 11 -27 0 -9 11 -22 25 -28 14 -6 25 -16 25 -22 0 -6
4 -9 10 -5 6 3 5 15 -2 31 -10 20 -9 27 2 34 8 5 18 6 22 4 13 -8 9 10 -8 34
-9 13 -13 29 -10 37 3 9 -9 30 -27 50 -18 20 -48 53 -67 75 -44 49 -70 63 -45
23z"/>
<path d="M2190 245 c-13 -14 -34 -25 -47 -25 -13 0 -23 -4 -23 -10 0 -19 56
-10 77 13 43 48 37 69 -7 22z"/>
<path d="M2035 220 c-4 -6 3 -10 14 -10 25 0 27 6 6 13 -8 4 -17 2 -20 -3z"/>
<path d="M2088 213 c7 -3 16 -2 19 1 4 3 -2 6 -13 5 -11 0 -14 -3 -6 -6z"/>
<path d="M2305 100 c3 -5 11 -10 16 -10 6 0 7 5 4 10 -3 6 -11 10 -16 10 -6 0
-7 -4 -4 -10z"/>
<path d="M2140 90 c20 -13 50 -13 50 0 0 6 -15 10 -32 10 -25 0 -29 -3 -18
-10z"/>
<path d="M2120 50 c30 -22 50 -31 50 -22 0 6 -8 12 -17 16 -10 3 -25 9 -33 12
-13 5 -13 4 0 -6z"/>
<path d="M2330 42 c0 -28 21 -42 60 -42 l35 1 -37 20 c-21 11 -38 24 -38 29 0
6 -4 10 -10 10 -5 0 -10 -8 -10 -18z"/>
<path d="M2435 10 c-3 -5 3 -10 15 -10 12 0 18 5 15 10 -3 6 -10 10 -15 10 -5
0 -12 -4 -15 -10z"/>
<path d="M2178 3 c7 -3 16 -2 19 1 4 3 -2 6 -13 5 -11 0 -14 -3 -6 -6z"/>
</g>
</svg>
